<svg width="16" height="16" viewBox="0 0 16 16" fill="none" xmlns="http://www.w3.org/2000/svg">
<path fill-rule="evenodd" opacity="0.9" d="M1 10V5.2C1 4.0799 1 3.51984 1.21799 3.09202C1.40973 2.71569 1.71569 2.40973 2.09202 2.21799C2.51984 2 3.0799 2 4.2 2H7L9 4H11C12.4001 4 13.1002 4 13.635 4.27248C14.1054 4.51217 14.4878 4.89462 14.7275 5.36502C15 5.8998 15 6.59987 15 8V10C15 11.4001 15 12.1002 14.7275 12.635C14.4878 13.1054 14.1054 13.4878 13.635 13.7275C13.1002 14 12.4001 14 11 14H5C3.59987 14 2.8998 14 2.36502 13.7275C1.89462 13.4878 1.51217 13.1054 1.27248 12.635C1 12.1002 1 11.4001 1 10Z m7.8266 11.96 l1.8605 -1.044 l0.0312 -0.091 l-0.0312 -0.0503 h-0.091 l-0.3113 -0.0192 l-1.0631 -0.0288 l-0.9219 -0.0383 l-0.8932 -0.0479 l-0.2251 -0.0479 l-0.2107 -0.2777 l0.0215 -0.1389 l0.1892 -0.1269 l0.2706 0.024 l0.5987 0.0407 l0.8979 0.0622 l0.6513 0.0383 l0.965 0.1006 h0.1533 l0.0215 -0.0623 l-0.0527 -0.0383 l-0.0407 -0.0383 L8.7174 9.5464 l-1.0057 -0.6657 l-0.5268 -0.3831 l-0.285 -0.194 l-0.1437 -0.182 l-0.0622 -0.3975 l0.2586 -0.285 l0.3472 0.0239 l0.0886 0.0239 l0.352 0.2706 l0.7519 0.5819 l0.9818 0.7232 l0.1437 0.1197 l0.0575 -0.0407 l0.0072 -0.0287 l-0.0647 -0.1078 l-0.534 -0.965 l-0.5699 -0.9818 l-0.2538 -0.407 l-0.067 -0.2443 c-0.0239 -0.1006 -0.0407 -0.1843 -0.0407 -0.2873 L8.4468 5.7199 L8.6096 5.6672 l0.3927 0.0527 l0.1653 0.1436 l0.2442 0.558 l0.3951 0.8788 l0.613 1.1949 l0.1796 0.3544 l0.0958 0.3281 l0.0359 0.1006 h0.0623 v-0.0575 l0.0503 -0.6728 l0.0934 -0.8261 l0.091 -1.0632 l0.0311 -0.2993 l0.1485 -0.3592 l0.2945 -0.194 l0.2299 0.1102 l0.1892 0.2706 l-0.0263 0.1748 l-0.1125 0.7303 l-0.2203 1.1446 l-0.1437 0.7663 h0.0838 l0.0958 -0.0958 l0.3879 -0.5148 l0.6513 -0.8142 l0.2874 -0.3233 l0.3352 -0.3568 l0.2155 -0.17 h0.4071 l0.2993 0.4454 l-0.1341 0.4598 l-0.4191 0.5316 l-0.3472 0.4502 l-0.498 0.6705 l-0.3113 0.5364 l0.0288 0.0431 l0.0742 -0.0072 l1.1254 -0.2394 l0.6082 -0.1102 l0.7255 -0.1245 l0.3281 0.1533 l0.0359 0.1556 l-0.1293 0.3185 l-0.7758 0.1916 l-0.91 0.182 l-1.3553 0.3209 l-0.0168 0.012 l0.0192 0.0239 l0.6106 0.0575 l0.261 0.0144 h0.6393 l1.1901 0.0886 l0.3113 0.2059 l0.1868 0.2515 l-0.0312 0.1916 l-0.4789 0.2443 l-0.6465 -0.1533 l-1.5086 -0.3592 l-0.5172 -0.1293 h-0.0719 v0.0431 l0.431 0.4215 l0.7902 0.7135 l0.989 0.9195 l0.0503 0.2275 l-0.1269 0.1796 l-0.1341 -0.0192 l-0.8692 -0.6537 l-0.3352 -0.2945 l-0.7591 -0.6393 h-0.0503 v0.067 l0.1748 0.2562 l0.9243 1.3888 l0.0479 0.4262 l-0.067 0.1389 l-0.2394 0.0838 l-0.2634 -0.0479 l-0.5412 -0.7591 L11.6387 12.7502 l-0.4502 -0.7662 l-0.0551 0.0312 l-0.2658 2.8615 l-0.1245 0.146 l-0.2874 0.1102 l-0.2394 -0.182 l-0.1269 -0.2945 l0.1269 -0.5819 l0.1533 -0.7591 l0.1245 -0.6034 l0.1125 -0.7495 l0.067 -0.249 l-0.0048 -0.0168 l-0.0551 0.0072 l-0.5651 0.7759 l-0.8596 1.1614 l-0.6801 0.7279 l-0.1628 0.0647 l-0.2825 -0.1461 l0.0263 -0.261 l0.1581 -0.2323 l0.941 -1.1973 l0.5675 -0.7423 l0.3664 -0.4286 l-0.0024 -0.0623 h-0.0215 l-2.4999 1.6235 l-0.4454 0.0575 l-0.1916 -0.1796 l0.024 -0.2945 l0.091 -0.0958 l0.7519 -0.5172 Z" fill="#D97757"/>
<g transform="translate(6.6200 6.3200) scale(0.34)"><path d="m4.7144 15.9555 4.7174-2.6471.079-.2307-.079-.1275h-.2307l-.7893-.0486-2.6956-.0729-2.3375-.0971-2.2646-.1214-.5707-.1215-.5343-.7042.0546-.3522.4797-.3218.686.0608 1.5179.1032 2.2767.1578 1.6514.0972 2.4468.255h.3886l.0546-.1579-.1336-.0971-.1032-.0972L6.973 9.8356l-2.55-1.6879-1.3356-.9714-.7225-.4918-.3643-.4614-.1578-1.0078.6557-.7225.8803.0607.2246.0607.8925.686 1.9064 1.4754 2.4893 1.8336.3643.3035.1457-.1032.0182-.0728-.164-.2733-1.3539-2.4467-1.445-2.4893-.6435-1.032-.17-.6194c-.0607-.255-.1032-.4674-.1032-.7285L6.287.1335 6.6997 0l.9957.1336.419.3642.6192 1.4147 1.0018 2.2282 1.5543 3.0296.4553.8985.2429.8318.091.255h.1579v-.1457l.1275-1.706.2368-2.0947.2307-2.6957.0789-.7589.3764-.9107.7468-.4918.5828.2793.4797.686-.0668.4433-.2853 1.8517-.5586 2.9021-.3643 1.9429h.2125l.2429-.2429.9835-1.3053 1.6514-2.0643.7286-.8196.85-.9046.5464-.4311h1.0321l.759 1.1293-.34 1.1657-1.0625 1.3478-.8804 1.1414-1.2628 1.7-.7893 1.36.0729.1093.1882-.0183 2.8535-.607 1.5421-.2794 1.8396-.3157.8318.3886.091.3946-.3278.8075-1.967.4857-2.3072.4614-3.4364.8136-.0425.0304.0486.0607 1.5482.1457.6618.0364h1.621l3.0175.2247.7892.522.4736.6376-.079.4857-1.2142.6193-1.6393-.3886-3.825-.9107-1.3113-.3279h-.1822v.1093l1.0929 1.0686 2.0035 1.8092 2.5075 2.3314.1275.5768-.3218.4554-.34-.0486-2.2039-1.6575-.85-.7468-1.9246-1.621h-.1275v.17l.4432.6496 2.3436 3.5214.1214 1.0807-.17.3521-.6071.2125-.6679-.1214-1.3721-1.9246L14.38 17.959l-1.1414-1.9428-.1397.079-.674 7.2552-.3156.3703-.7286.2793-.6071-.4614-.3218-.7468.3218-1.4753.3886-1.9246.3157-1.53.2853-1.9004.17-.6314-.0121-.0425-.1397.0182-1.4328 1.9672-2.1796 2.9446-1.7243 1.8456-.4128.164-.7164-.3704.0667-.6618.4008-.5889 2.386-3.0357 1.4389-1.882.929-1.0868-.0062-.1579h-.0546l-6.3385 4.1164-1.1293.1457-.4857-.4554.0608-.7467.2307-.2429 1.9064-1.3114Z" fill="#F7D7CB"/></g>
</svg>
