<svg width="16" height="16" viewBox="0 0 16 16" fill="none" xmlns="http://www.w3.org/2000/svg">
<path fill-rule="evenodd" opacity="0.9" d="M1 10V5.2C1 4.0799 1 3.51984 1.21799 3.09202C1.40973 2.71569 1.71569 2.40973 2.09202 2.21799C2.51984 2 3.0799 2 4.2 2H7L9 4H11C12.4001 4 13.1002 4 13.635 4.27248C14.1054 4.51217 14.4878 4.89462 14.7275 5.36502C15 5.8998 15 6.59987 15 8V10C15 11.4001 15 12.1002 14.7275 12.635C14.4878 13.1054 14.1054 13.4878 13.635 13.7275C13.1002 14 12.4001 14 11 14H5C3.59987 14 2.8998 14 2.36502 13.7275C1.89462 13.4878 1.51217 13.1054 1.27248 12.635C1 12.1002 1 11.4001 1 10Z M5.9672 13.7883 c0.017 0.209 0.0907 0.4192 0.2832 0.7012 c0.2288 0.3348 0.6216 0.5186 0.9083 0.2236 c0.1933 -0.1992 2.2852 -3.8557 3.2932 -5.2416 a0.3001 0.3001 0 0 1 0.4922 0 c1.0081 1.3859 3.1 5.0424 3.2932 5.2416 c0.2867 0.295 0.6796 0.1112 0.9083 -0.2236 c0.2248 -0.3293 0.2871 -0.56 0.2871 -0.8069 c0 -0.168 -3.2577 -6.2307 -3.5859 -6.7356 c-0.3155 -0.4851 -0.4118 -0.5908 -0.9454 -0.6082 h-0.407 c-0.5336 0.0174 -0.6299 0.1227 -0.9458 0.6082 C9.2277 7.4413 6.0974 13.2654 5.9672 13.6645 Z" fill="#4F46E5"/>
<g transform="translate(6.6200 6.5200) scale(0.34)"><path d="M0 20.084c.043.53.23 1.063.718 1.778.58.849 1.576 1.315 2.303.567.49-.505 5.794-9.776 8.35-13.29a.761.761 0 011.248 0c2.556 3.514 7.86 12.785 8.35 13.29.727.748 1.723.282 2.303-.567.57-.835.728-1.42.728-2.046 0-.426-8.26-15.798-9.092-17.078-.8-1.23-1.044-1.498-2.397-1.542h-1.032c-1.353.044-1.597.311-2.398 1.542C8.267 3.991.33 18.758 0 19.77Z" fill="#FFFFFF"/></g>
</svg>
